<?xml version="1.0" encoding="utf-8"?>
<!-- Generator: Adobe Illustrator 28.2.0, SVG Export Plug-In . SVG Version: 6.00 Build 0)  -->
<svg version="1.1" id="레이어_1" xmlns="http://www.w3.org/2000/svg" xmlns:xlink="http://www.w3.org/1999/xlink" x="0px"
	 y="0px" viewBox="0 0 500 200" style="enable-background:new 0 0 500 200;" xml:space="preserve">
<style type="text/css">
	.st0{fill:#333333;}
</style>
<g>
	<path class="st0" d="M55.5,126.5c1,0,2.1,0.5,3,1.4L80,151.4l-6.8,5.9l-21.6-24.5c-0.4-0.4-0.9-0.7-1.4-0.7c-0.5,0-1,0.2-1.3,0.7
		c-2,3.8-4.7,7.9-8,12.1c-3.3,4.2-7.6,9-12.8,14.3l-6.7-5.8c6.6-6.7,11.6-12.4,15.1-17.3c3.5-4.9,6-9.7,7.5-14.4
		c1.5-4.7,2.3-10.1,2.3-16.2H24.3v-7.9h53v7.9H55.4c0,8.2-1.4,15.6-4.2,22.3l0.7,0.4l1.2-0.9C53.8,126.7,54.6,126.5,55.5,126.5z
		 M66.1,84.4H35.8v-8.1h30.3V84.4z M122.7,68.7v113.8h-9.6v-61.1H95.5v57.9h-9.6V70.6h9.6v42.5h17.7V68.7H122.7z"/>
	<path class="st0" d="M245.5,126.2v8.4h-107v-8.4H167v-15.5c-4.8-2-8.4-4.6-10.8-7.9c-2.4-3.2-3.6-6.9-3.6-11
		c0-6.8,3.3-12.3,10-16.6c6.6-4.2,16.5-6.4,29.5-6.4c13,0,22.8,2.1,29.5,6.4c6.6,4.2,10,9.8,10,16.6c0,4.1-1.2,7.8-3.6,11
		c-2.4,3.2-6,5.9-10.8,7.9v15.5H245.5z M230.9,166.7c0,4.5-1.5,8.4-4.4,11.8c-2.9,3.4-7.3,6.1-13.1,8.1c-5.8,2-12.9,2.9-21.3,2.9
		c-8.4,0-15.5-1-21.3-2.9c-5.8-2-10.2-4.7-13.1-8.1c-2.9-3.4-4.4-7.3-4.4-11.8c0-4.4,1.5-8.2,4.4-11.6c2.9-3.4,7.3-6,13.1-7.9
		c5.8-1.9,12.9-2.9,21.3-2.9c8.4,0,15.5,1,21.3,2.9c5.8,1.9,10.2,4.6,13.1,7.9C229.4,158.5,230.9,162.3,230.9,166.7z M192.1,106.9
		c9.7,0,17-1.3,21.8-4c4.8-2.7,7.2-6.1,7.2-10.3v-1.8c0-4.1-2.4-7.5-7.3-10.2c-4.8-2.7-12.1-4-21.7-4c-9.6,0-16.8,1.3-21.6,4
		c-4.8,2.7-7.2,6.1-7.2,10.2v1.8c0,4.2,2.4,7.6,7.1,10.3C175.1,105.6,182.4,106.9,192.1,106.9z M220.4,166c0-3.9-2.3-7.1-7-9.8
		c-4.7-2.7-11.8-4-21.3-4c-6.4,0-11.7,0.6-16,1.9c-4.3,1.3-7.4,3-9.4,5.1c-2,2.1-3,4.4-3,6.8v1.8c0,2.5,1,4.7,3,6.8
		c2,2.1,5.2,3.8,9.4,5.1c4.3,1.3,9.6,1.9,16,1.9c9.5,0,16.6-1.3,21.3-4c4.7-2.7,7-5.9,7-9.8V166z M176.6,126.2h30.9v-12.7
		c-4.3,0.9-9.4,1.3-15.5,1.3c-6,0-11.2-0.4-15.5-1.3V126.2z"/>
	<path class="st0" d="M265.9,133.2l-7.5-6.3c7.3-5.8,13-10.8,17-15c4-4.2,6.9-8.4,8.7-12.6c1.8-4.1,2.7-8.8,2.7-14V84h-25v-8.4h59.8
		V84h-24.8v1.7c0,7.4-1.5,13.9-4.6,19.5l0.8,0.4l2.1-1.6c1-0.7,1.9-1,2.9-1c1.1,0,2.1,0.4,3,1.2l24.4,20.4l-7.3,6.6l-24.8-21.5
		c-0.7-0.5-1.4-0.8-2-0.8c-0.7,0-1.3,0.3-1.8,0.8c-2.4,3.4-5.4,6.9-9,10.5C276.7,123.8,271.9,128.1,265.9,133.2z M354.3,164.2
		c0,4.7-1.4,8.9-4.1,12.6c-2.8,3.7-6.9,6.6-12.5,8.8c-5.6,2.1-12.3,3.2-20.3,3.2c-8,0-14.8-1.1-20.4-3.2c-5.6-2.1-9.7-5.1-12.5-8.8
		c-2.8-3.7-4.1-7.9-4.1-12.6s1.4-8.9,4.1-12.6c2.8-3.7,6.9-6.6,12.5-8.8c5.5-2.1,12.3-3.2,20.4-3.2c8,0,14.7,1.1,20.3,3.2
		c5.5,2.1,9.7,5.1,12.5,8.8C353,155.3,354.3,159.5,354.3,164.2z M343.9,163.2c0-4.5-2.2-8.2-6.6-11.2c-4.4-3-11-4.5-19.8-4.5
		c-8.9,0-15.6,1.5-20,4.5c-4.4,3-6.6,6.8-6.6,11.2v2.2c0,4.4,2.2,8.1,6.6,11.1c4.4,3,11.1,4.5,20,4.5c8.8,0,15.4-1.5,19.8-4.5
		c4.4-3,6.6-6.7,6.6-11.1V163.2z M343.7,96.9V68.7h10v68.4h-10V105h-23.9v-8.1H343.7z"/>
	<path class="st0" d="M479.4,161.1v8.4h-107v-8.4h48.5v-26.7h-33.8V74.7h10v21.6h57.5V74.7h9.8v59.6h-33.6v26.7H479.4z M397.1,126.1
		h57.5v-21.5h-57.5V126.1z"/>
</g>
</svg>
